<svg xmlns="http://www.w3.org/2000/svg" xmlns:xlink="http://www.w3.org/1999/xlink" width="500" zoomAndPan="magnify" viewBox="0 0 375 374.999991" height="500" preserveAspectRatio="xMidYMid meet" version="1.0"><defs><clipPath id="55befeab97"><path d="M 67.179688 67.0625 L 307.8125 67.0625 L 307.8125 307.8125 L 67.179688 307.8125 Z M 67.179688 67.0625 " clip-rule="nonzero"/></clipPath></defs><g clip-path="url(#55befeab97)"><path fill="#a67400" d="M 85.367188 307.929688 L 289.625 307.929688 C 299.742188 307.929688 307.929688 299.742188 307.929688 289.625 L 307.929688 85.367188 C 307.929688 75.253906 299.742188 67.0625 289.625 67.0625 L 85.367188 67.0625 C 75.253906 67.0625 67.0625 75.253906 67.0625 85.367188 L 67.0625 289.625 C 67.0625 299.742188 75.253906 307.929688 85.367188 307.929688 Z M 289.625 74.289062 C 295.644531 74.289062 300.703125 79.347656 300.703125 85.367188 L 300.703125 289.625 C 300.703125 295.644531 295.886719 300.464844 289.863281 300.464844 L 85.609375 300.464844 C 79.589844 300.464844 74.769531 295.644531 74.769531 289.625 L 74.769531 85.367188 C 74.769531 79.347656 79.589844 74.53125 85.609375 74.53125 Z M 289.625 74.289062 " fill-opacity="1" fill-rule="nonzero"/></g><path fill="#a67400" d="M 173.765625 233.019531 L 218.328125 186.773438 L 173.765625 141.972656 L 163.410156 152.328125 L 197.855469 187.015625 L 163.167969 222.902344 Z M 173.765625 233.019531 " fill-opacity="1" fill-rule="nonzero"/></svg>