<svg xmlns="http://www.w3.org/2000/svg" xmlns:xlink="http://www.w3.org/1999/xlink" width="1366" zoomAndPan="magnify" viewBox="0 0 1024.5 576" height="768" preserveAspectRatio="xMidYMid meet" version="1.0"><defs><filter x="0%" y="0%" width="100%" height="100%" id="9696ddab19"><feColorMatrix values="0 0 0 0 1 0 0 0 0 1 0 0 0 0 1 0 0 0 1 0" color-interpolation-filters="sRGB"/></filter><clipPath id="c04bdf34d6"><path d="M 0 0.140625 L 1024 0.140625 L 1024 575.859375 L 0 575.859375 Z M 0 0.140625 " clip-rule="nonzero"/></clipPath><clipPath id="e3a395ee2e"><path d="M 0 3 L 1024 3 L 1024 575.859375 L 0 575.859375 Z M 0 3 " clip-rule="nonzero"/></clipPath><clipPath id="3504c3825b"><path d="M 481 541 L 563 541 L 563 575.859375 L 481 575.859375 Z M 481 541 " clip-rule="nonzero"/></clipPath><clipPath id="1e277caf3b"><path d="M 868 3 L 1024 3 L 1024 99 L 868 99 Z M 868 3 " clip-rule="nonzero"/></clipPath><clipPath id="12bdcd71fe"><path d="M 144 203 L 422 203 L 422 575.859375 L 144 575.859375 Z M 144 203 " clip-rule="nonzero"/></clipPath><clipPath id="a5d2969a4d"><path d="M 171 383 L 993 383 L 993 575.859375 L 171 575.859375 Z M 171 383 " clip-rule="nonzero"/></clipPath><clipPath id="874ec49781"><path d="M 660 3 L 1024 3 L 1024 401 L 660 401 Z M 660 3 " clip-rule="nonzero"/></clipPath><clipPath id="e4af2cc78f"><path d="M 0 31 L 244 31 L 244 575.859375 L 0 575.859375 Z M 0 31 " clip-rule="nonzero"/></clipPath><clipPath id="d565403d0f"><path d="M 889 201 L 1024 201 L 1024 529 L 889 529 Z M 889 201 " clip-rule="nonzero"/></clipPath><clipPath id="91bc0db601"><path d="M 212 262 L 720 262 L 720 575.859375 L 212 575.859375 Z M 212 262 " clip-rule="nonzero"/></clipPath><clipPath id="0ce5674de4"><path d="M 0 0.140625 L 1024 0.140625 L 1024 575.859375 L 0 575.859375 Z M 0 0.140625 " clip-rule="nonzero"/></clipPath><mask id="127132fdac"><g filter="url(#9696ddab19)"><rect x="-102.45" width="1229.4" fill="#000000" y="-57.6" height="691.2" fill-opacity="0.41"/></g></mask><clipPath id="95d42bc8d5"><path d="M 0 0.140625 L 1024 0.140625 L 1024 575.859375 L 0 575.859375 Z M 0 0.140625 " clip-rule="nonzero"/></clipPath><clipPath id="054aec4f23"><rect x="0" width="1024" y="0" height="576"/></clipPath></defs><g clip-path="url(#c04bdf34d6)"><path fill="#ffffff" d="M 0 0.140625 L 1024 0.140625 L 1024 575.859375 L 0 575.859375 Z M 0 0.140625 " fill-opacity="1" fill-rule="nonzero"/><path fill="#757a65" d="M 0 0.140625 L 1024 0.140625 L 1024 575.859375 L 0 575.859375 Z M 0 0.140625 " fill-opacity="1" fill-rule="nonzero"/></g><g clip-path="url(#e3a395ee2e)"><path fill="#374f3f" d="M -175.917969 3.203125 L 1099.894531 3.203125 L 1099.894531 1279.015625 L -175.917969 1279.015625 Z M -175.917969 3.203125 " fill-opacity="1" fill-rule="nonzero"/></g><path fill="#33312d" d="M 117.230469 236.089844 C 118.015625 238.339844 119.042969 240.425781 120.167969 242.417969 C 128.183594 242.21875 134.582031 237.375 136.875 224.375 C 138.269531 216.453125 129.9375 199.429688 119.988281 182.425781 C 114.148438 199.835938 110.859375 217.757812 117.230469 236.089844 " fill-opacity="1" fill-rule="nonzero"/><path fill="#33312d" d="M 345.789062 61.042969 C 350.601562 62.160156 358.046875 60.984375 366.589844 59.140625 C 377.226562 42.253906 383.953125 22.738281 386.117188 3.203125 L 332.394531 3.203125 C 323.023438 7.71875 313.375 11.855469 303.828125 17.105469 C 318.328125 34.53125 324.058594 55.988281 345.789062 61.042969 " fill-opacity="1" fill-rule="nonzero"/><path fill="#33312d" d="M -95.621094 4.964844 C -47.300781 1.386719 10.550781 16.5 59.964844 39.613281 C 92.976562 0.164062 145.457031 114.515625 160.445312 129.121094 C 162.589844 131.203125 164.683594 132.886719 166.738281 134.261719 C 169.257812 126.277344 172.207031 118.523438 175.597656 111.148438 C 190.359375 78.964844 209.566406 53.359375 176.992188 29.085938 C 164.714844 19.9375 132.191406 17.792969 119.140625 3.203125 L -120.601562 3.203125 C -115.765625 7.167969 -116.894531 10.566406 -124.496094 10.917969 C -128.484375 30.640625 -90.769531 10.867188 -95.621094 4.964844 " fill-opacity="1" fill-rule="nonzero"/><path fill="#33312d" d="M 948.472656 383.921875 C 934.296875 385.007812 920.152344 385.757812 907.746094 376.894531 C 907.375 376.636719 907.085938 376.359375 906.738281 376.097656 C 858.355469 415.132812 764.066406 410.695312 798.421875 333.570312 C 808.558594 310.804688 841.144531 281.816406 811.269531 261.367188 C 787.140625 244.839844 752.234375 246.285156 757.257812 217.71875 C 760.179688 201.113281 766.429688 196.746094 771.152344 196 C 773.914062 195.5625 775.546875 192.660156 774.53125 190.050781 C 761.914062 157.785156 749.375 125.3125 732.398438 95.660156 C 718.714844 95.160156 705.191406 94.054688 692.679688 89.886719 C 685.027344 92.996094 675.019531 94.902344 662.191406 95.0625 C 637.371094 95.371094 614.269531 80.082031 590.914062 81.277344 C 590.167969 81.316406 589.46875 81.375 588.742188 81.425781 C 576.261719 93.496094 565.867188 111.347656 557.953125 131.03125 C 577.988281 126.308594 597.792969 122.910156 617.269531 122.203125 C 661.324219 120.605469 672.65625 150.597656 637.492188 174.171875 C 613.480469 190.269531 575.257812 201.632812 540.6875 210.59375 C 540.550781 216.511719 540.738281 222.054688 541.328125 227.027344 C 547.257812 277.402344 545.035156 306.617188 521.351562 348.640625 C 529.925781 377.703125 489.398438 453.992188 543.867188 421.738281 C 579.390625 400.699219 584.265625 344.832031 615.226562 316.972656 C 633.675781 300.367188 668.660156 271.261719 698.371094 263.519531 C 710.28125 260.417969 721.347656 270.675781 719.125 282.785156 C 710.859375 327.726562 656.867188 368.734375 630.882812 402.015625 C 616.203125 420.84375 563.84375 476.019531 597.5625 495.824219 C 617.328125 507.449219 646.78125 479.191406 668.46875 480.019531 C 668.96875 485.667969 668.222656 490.644531 666.535156 495.070312 C 677.25 493.484375 688.785156 493.535156 701.113281 495.328125 C 714.179688 497.230469 730.636719 499.753906 746.472656 504.46875 C 744.898438 500.421875 743.902344 496.214844 743.804688 491.757812 C 743.003906 454.152344 784.519531 446.699219 812.070312 445.890625 C 840.546875 445.0625 873.328125 449.160156 903.617188 444.386719 C 917.273438 423.402344 932.484375 403.398438 948.472656 383.921875 " fill-opacity="1" fill-rule="nonzero"/><path fill="#33312d" d="M 317.402344 165.488281 C 349.675781 174.9375 382.449219 174.132812 415.289062 168.511719 C 390.003906 154.953125 351.152344 164.582031 317.402344 165.488281 " fill-opacity="1" fill-rule="nonzero"/><g clip-path="url(#3504c3825b)"><path fill="#33312d" d="M 559.804688 541.1875 C 532.90625 551.003906 508.882812 566.722656 498.117188 591.703125 C 486.527344 618.613281 492.628906 657.015625 481.144531 685.304688 C 484.023438 686.75 487.382812 687.824219 491.472656 688.414062 C 514.914062 691.742188 545.84375 669.109375 556.398438 647.46875 C 573.691406 612.015625 546.691406 574.257812 559.804688 541.1875 " fill-opacity="1" fill-rule="nonzero"/></g><g clip-path="url(#1e277caf3b)"><path fill="#33312d" d="M 951.429688 57.316406 C 986.867188 59.527344 1012.421875 70.523438 1032.746094 98.660156 C 1046.390625 97.761719 1056.066406 93.914062 1069.226562 78.515625 C 1085.0625 59.964844 1101.390625 27.703125 1099.746094 3.203125 L 968.992188 3.203125 C 962.984375 5.136719 956.84375 6.570312 950.476562 7.070312 C 939.582031 7.925781 930.269531 6.441406 922.175781 3.203125 L 878.121094 3.203125 C 870.179688 10.789062 865.273438 19.777344 869.71875 33.492188 C 880.316406 66.234375 925.90625 55.71875 951.429688 57.316406 " fill-opacity="1" fill-rule="nonzero"/></g><g clip-path="url(#12bdcd71fe)"><path fill="#33312d" d="M 417.953125 238.769531 C 420.085938 231.234375 421.101562 223.648438 421.808594 216.035156 C 410.925781 214.171875 399.640625 213.015625 387.292969 214.140625 C 329.769531 219.382812 376.816406 242.585938 379.964844 275.390625 C 383.992188 317.351562 333.109375 350.234375 321.796875 295.035156 C 316.605469 269.699219 335.003906 202.738281 291.359375 203.863281 C 241.609375 205.148438 273.84375 275.816406 280.382812 298.265625 C 290.410156 332.632812 281.011719 406.738281 234.761719 408.992188 C 234.285156 431.65625 233.417969 454.121094 232.371094 476.5 C 232.679688 478.292969 232.980469 480.167969 233.238281 482.179688 C 235.429688 499.414062 231.742188 519.410156 240.433594 535.246094 C 246.1875 545.742188 256.234375 549.640625 263.808594 556.816406 C 267.328125 560.144531 266.789062 566.007812 262.679688 568.566406 C 251.738281 575.40625 236.894531 577.558594 222.890625 580.347656 C 212.734375 614.976562 189.910156 638.886719 157.367188 649.113281 C 153.300781 662.789062 150.480469 676.742188 148.265625 689.042969 C 143.195312 717.238281 137.054688 765.550781 172.027344 773.105469 C 186.550781 776.246094 200.117188 767.054688 212.824219 755.683594 C 207.550781 734.144531 243.246094 717.699219 258.085938 708.199219 C 268.152344 701.75 297.835938 685.226562 298.304688 673.34375 C 299.0625 653.835938 265.09375 648.664062 274.851562 629.71875 C 279.078125 621.523438 304.84375 628.96875 308.261719 630.144531 C 324.121094 635.648438 319.65625 630.394531 331.136719 616.539062 C 346.445312 598.082031 344.53125 582.410156 369.589844 565.398438 C 396.523438 547.117188 403.976562 541.085938 407.027344 506.550781 C 408.5625 489.136719 412.957031 465.097656 420.484375 440.617188 C 401.355469 437.894531 383.425781 427.847656 373.296875 410.15625 C 354.519531 377.296875 365.851562 324.757812 384.582031 295.34375 C 396.3125 276.925781 411.820312 260.347656 417.953125 238.769531 " fill-opacity="1" fill-rule="nonzero"/></g><path fill="#33312d" d="M 936.121094 285.546875 C 956.972656 272.199219 981.972656 261.753906 1004.488281 256.789062 C 1001.546875 246.035156 997.980469 236.328125 979.441406 235.46875 C 947.273438 233.976562 940.148438 259.511719 936.121094 285.546875 " fill-opacity="1" fill-rule="nonzero"/><path fill="#918e6d" d="M 175.597656 111.148438 C 172.207031 118.523438 169.257812 126.277344 166.738281 134.261719 C 176.703125 140.949219 185.742188 140.054688 194.914062 138.300781 C 205.460938 136.296875 216.152344 133.175781 228.574219 139.257812 C 249.445312 149.472656 243.535156 170.78125 237.09375 190.578125 C 235.171875 196.476562 233.207031 202.257812 231.890625 207.550781 C 226.0625 230.976562 214.628906 267.394531 218.296875 292.414062 C 222.304688 319.773438 235.332031 336.03125 235.292969 367.277344 C 235.269531 381.273438 235.070312 395.15625 234.761719 408.992188 C 281.011719 406.738281 290.410156 332.632812 280.382812 298.265625 C 273.84375 275.816406 241.609375 205.148438 291.359375 203.863281 C 335.003906 202.738281 316.605469 269.699219 321.796875 295.035156 C 333.109375 350.234375 383.992188 317.351562 379.964844 275.390625 C 376.816406 242.585938 329.769531 219.382812 387.292969 214.140625 C 399.640625 213.015625 410.925781 214.171875 421.808594 216.035156 C 447.175781 220.359375 470.351562 228.5625 499.714844 220.949219 C 511.765625 217.816406 525.898438 214.417969 540.6875 210.59375 C 575.257812 201.632812 613.480469 190.269531 637.492188 174.171875 C 672.65625 150.597656 661.324219 120.605469 617.269531 122.203125 C 597.792969 122.910156 577.988281 126.308594 557.953125 131.03125 C 555.472656 131.621094 552.96875 132.238281 550.46875 132.867188 C 550.289062 133.863281 550.097656 134.871094 549.898438 135.886719 C 543.082031 170.183594 521.992188 185.234375 488.5 196.269531 C 476.917969 200.085938 460.820312 208.171875 447.855469 204.011719 C 429.632812 198.164062 434.945312 187.308594 426.09375 176.890625 C 425.277344 175.925781 424.382812 174.957031 423.285156 174.003906 C 420.8125 171.847656 418.132812 170.035156 415.289062 168.511719 C 382.449219 174.132812 349.675781 174.9375 317.402344 165.488281 C 304.15625 165.839844 291.714844 164.820312 281.171875 160.546875 C 272.976562 157.226562 265.910156 151.984375 260.558594 143.800781 C 244.132812 118.714844 263.347656 112.003906 286.164062 107.667969 C 300.675781 104.917969 316.644531 103.113281 325.863281 98.160156 C 342.597656 89.160156 356.363281 75.367188 366.589844 59.140625 C 358.046875 60.984375 350.601562 62.160156 345.789062 61.042969 C 324.058594 55.988281 318.328125 34.53125 303.828125 17.105469 C 300.957031 13.65625 297.765625 10.339844 294 7.367188 C 292.09375 5.863281 290.203125 4.546875 288.296875 3.203125 L 119.140625 3.203125 C 132.191406 17.792969 164.714844 19.9375 176.992188 29.085938 C 209.566406 53.359375 190.359375 78.964844 175.597656 111.148438 " fill-opacity="1" fill-rule="nonzero"/><path fill="#918e6d" d="M 123.1875 537.550781 C 135.507812 533.820312 144.738281 526.066406 151.40625 515.980469 C 131.183594 501.617188 98.289062 500.898438 72.066406 508.503906 C 77.199219 531.210938 89.421875 547.777344 123.1875 537.550781 " fill-opacity="1" fill-rule="nonzero"/><g clip-path="url(#a5d2969a4d)"><path fill="#918e6d" d="M 956.554688 482.199219 C 958.300781 451.34375 984.453125 431.566406 991.550781 404.417969 C 993.734375 396.074219 988.917969 387.570312 980.65625 385.121094 C 976.628906 383.921875 972.484375 383.363281 968.257812 383.164062 C 961.777344 382.867188 955.128906 383.414062 948.472656 383.921875 C 932.484375 403.398438 917.273438 423.402344 903.617188 444.386719 C 891.339844 463.273438 880.304688 482.9375 871.136719 503.71875 C 856.621094 536.613281 852.207031 592.339844 826.820312 617.964844 C 809.578125 635.367188 777.214844 641.378906 766.519531 611.835938 C 755.523438 581.445312 814.472656 577.289062 797.925781 541.039062 C 789.113281 521.730469 768.402344 510.996094 746.472656 504.46875 C 730.636719 499.753906 714.179688 497.230469 701.113281 495.328125 C 688.785156 493.535156 677.25 493.484375 666.535156 495.070312 C 664.113281 501.46875 659.679688 506.679688 653.988281 510.988281 C 642.285156 519.828125 625.351562 524.839844 609.8125 528.390625 C 602.785156 537.460938 596.824219 548.292969 592 560.902344 C 579.371094 593.925781 578.84375 623.078125 558.980469 656.070312 C 538.019531 690.875 516.777344 707.722656 480.726562 727.59375 C 445.421875 747.050781 411.265625 761.941406 371.941406 768.242188 C 329.414062 775.050781 275.0625 770.683594 235.761719 787.738281 C 197.027344 804.554688 154.984375 855.925781 177.769531 898.554688 C 199.546875 939.28125 238.898438 929.671875 271.722656 910.945312 C 271.125 909.160156 270.535156 907.367188 270.015625 905.523438 C 262.570312 879.238281 264.046875 815.328125 301.542969 846.195312 C 311.5 854.390625 315.457031 865.753906 317.371094 878.011719 C 354.71875 848.660156 407.199219 813.445312 449.9375 843.863281 C 475.144531 861.804688 477.925781 886.394531 475.960938 912.308594 C 481.941406 904.636719 487.453125 897.964844 492.078125 893.640625 C 508.585938 878.203125 525.378906 865.980469 543.171875 854.730469 C 560.183594 811.78125 588.621094 778.976562 631.351562 758.894531 C 661.742188 744.609375 698.550781 736.457031 731.734375 734.144531 C 756.988281 732.378906 782.335938 745.925781 807.226562 742.488281 C 777.550781 699.957031 801.5625 628.0625 863.121094 643.152344 C 871.664062 645.246094 879.269531 648.027344 886.175781 651.296875 C 889.015625 652.640625 891.757812 654.046875 894.347656 655.550781 C 902.054688 652.570312 909.558594 648.902344 916.285156 642.632812 C 926.222656 633.363281 931.425781 620.957031 935.414062 607.597656 C 941.433594 587.457031 944.664062 565.128906 957.042969 547.964844 C 963.003906 539.703125 969.28125 531.878906 975.820312 524.390625 C 962.734375 518.441406 955.257812 505.007812 956.554688 482.199219 " fill-opacity="1" fill-rule="nonzero"/></g><g clip-path="url(#874ec49781)"><path fill="#918e6d" d="M 705.210938 39.664062 C 710.460938 48.382812 713.152344 57.375 712.535156 65.527344 C 719.820312 75.144531 726.417969 85.203125 732.398438 95.660156 C 749.304688 125.203125 761.8125 157.535156 774.382812 189.679688 C 775.480469 192.480469 773.695312 195.480469 770.753906 196.070312 C 766.078125 196.996094 760.097656 201.582031 757.257812 217.71875 C 752.234375 246.285156 787.140625 244.839844 811.269531 261.367188 C 841.144531 281.816406 808.558594 310.804688 798.421875 333.570312 C 764.066406 410.695312 858.355469 415.132812 906.738281 376.097656 C 900.429688 371.40625 896.101562 366.371094 893.363281 361.15625 C 883.386719 342.109375 894.886719 320.632812 912.011719 304.175781 C 918.070312 298.355469 925.175781 292.792969 932.921875 287.621094 C 931.296875 278.308594 928.886719 269.378906 926.003906 261.445312 C 924.957031 258.523438 923.3125 255.066406 921.410156 251.289062 C 917.78125 244.070312 913.085938 235.601562 908.949219 226.769531 C 901.015625 209.863281 895.285156 191.824219 903.738281 179.722656 C 941.914062 125.050781 1012.949219 269.429688 1056.308594 218.027344 C 1076.3125 194.316406 1053.734375 132.476562 1039.125 108.257812 C 1037.0625 104.828125 1034.917969 101.679688 1032.746094 98.660156 C 1012.421875 70.523438 986.867188 59.527344 951.429688 57.316406 C 925.90625 55.71875 880.316406 66.234375 869.71875 33.492188 C 865.273438 19.777344 870.179688 10.789062 878.121094 3.203125 L 660.347656 3.203125 C 679.773438 10.617188 696.179688 24.703125 705.210938 39.664062 " fill-opacity="1" fill-rule="nonzero"/></g><g clip-path="url(#e4af2cc78f)"><path fill="#24272c" d="M 228.484375 547.417969 C 229.957031 523.835938 231.253906 500.203125 232.371094 476.5 C 233.417969 454.121094 234.285156 431.65625 234.761719 408.992188 C 235.070312 395.15625 235.269531 381.273438 235.292969 367.277344 C 235.332031 336.03125 222.304688 319.773438 218.296875 292.414062 C 214.628906 267.394531 226.0625 230.976562 231.890625 207.550781 C 233.207031 202.257812 235.171875 196.476562 237.09375 190.578125 C 243.535156 170.78125 249.445312 149.472656 228.574219 139.257812 C 216.152344 133.175781 205.460938 136.296875 194.914062 138.300781 C 185.742188 140.054688 176.703125 140.949219 166.738281 134.261719 C 164.683594 132.886719 162.589844 131.203125 160.445312 129.121094 C 145.457031 114.515625 92.976562 0.164062 59.964844 39.613281 C 56.976562 43.179688 54.136719 47.996094 51.515625 54.285156 C 38.027344 86.527344 77.648438 116.460938 92.5 139.335938 C 97.15625 146.503906 109.484375 164.453125 119.988281 182.425781 C 129.9375 199.429688 138.269531 216.453125 136.875 224.375 C 134.582031 237.375 128.183594 242.21875 120.167969 242.417969 C 105.558594 242.765625 85.5625 227.546875 75.386719 217.667969 C 52.609375 195.550781 43.382812 188.15625 19.550781 187.140625 C 5.625 186.539062 0.371094 203.207031 10.578125 212.703125 C 39.8125 239.945312 96.816406 256.949219 115.464844 273.613281 C 135 291.066406 134.34375 307.085938 133.058594 340.066406 C 132 367.078125 146.324219 385.179688 156.300781 408.105469 C 168.351562 435.804688 171.132812 486.148438 151.40625 515.980469 C 144.738281 526.066406 135.507812 533.820312 123.1875 537.550781 C 89.421875 547.777344 77.199219 531.210938 72.066406 508.503906 C 67.261719 487.253906 68.667969 460.640625 64.5 445.53125 C 59.417969 427.042969 39.324219 391.507812 20.953125 384.96875 C -7.78125 374.742188 -37.992188 403.179688 -66.65625 404.707031 C -76.984375 405.253906 -85.566406 404.285156 -92.78125 402.171875 C -115.128906 395.65625 -123.808594 377.625 -125.894531 355.109375 C -126.5 348.570312 -126.570312 341.660156 -126.253906 334.546875 C -124.957031 306.097656 -117.628906 274.472656 -115.527344 250.871094 C -115.359375 249.046875 -115.226562 247.273438 -115.128906 245.558594 C -113.554688 217.152344 -105.910156 182.824219 -138.949219 179.984375 C -160.269531 178.160156 -169.601562 188.394531 -175.917969 201.261719 L -175.917969 489.984375 C -172.808594 489.675781 -169.601562 489.488281 -166.160156 489.578125 C -131.445312 490.503906 -96.710938 510.898438 -68.253906 527.929688 C -45.558594 541.515625 -25.351562 562.828125 -5.03125 584.097656 C 1.050781 590.445312 7.140625 596.785156 13.300781 602.925781 C 38.207031 627.734375 64.441406 649.074219 96.578125 653.238281 C 99.976562 653.679688 103.304688 653.988281 106.605469 654.226562 C 125.390625 655.613281 142.40625 653.808594 157.367188 649.113281 C 189.910156 638.886719 212.734375 614.976562 222.890625 580.347656 C 225.851562 570.25 227.746094 559.257812 228.484375 547.417969 " fill-opacity="1" fill-rule="nonzero"/></g><g clip-path="url(#d565403d0f)"><path fill="#24272c" d="M 1085.082031 233.824219 C 1066.15625 260.855469 1041.457031 250.640625 1013.585938 255.027344 C 1010.628906 255.496094 1007.566406 256.101562 1004.488281 256.789062 C 981.972656 261.753906 956.972656 272.199219 936.121094 285.546875 C 935.046875 286.234375 933.980469 286.910156 932.921875 287.621094 C 925.175781 292.792969 918.070312 298.355469 912.011719 304.175781 C 894.886719 320.632812 883.386719 342.109375 893.363281 361.15625 C 896.101562 366.371094 900.429688 371.40625 906.738281 376.097656 C 907.085938 376.359375 907.375 376.636719 907.746094 376.894531 C 920.152344 385.757812 934.296875 385.007812 948.472656 383.921875 C 955.128906 383.414062 961.777344 382.867188 968.257812 383.164062 C 972.710938 383.375 977.085938 383.984375 981.324219 385.320312 C 989.089844 387.769531 993.671875 395.972656 991.691406 403.867188 C 984.800781 431.296875 958.308594 451.144531 956.554688 482.199219 C 955.257812 505.007812 962.734375 518.441406 975.820312 524.390625 C 987.285156 529.59375 1003.050781 529.058594 1021.191406 523.765625 C 1026.515625 522.21875 1031.359375 520.285156 1035.953125 518.164062 C 1058.378906 507.808594 1074.03125 492.558594 1099.894531 489.984375 L 1099.894531 201.261719 C 1094.570312 212.105469 1091.390625 224.804688 1085.082031 233.824219 " fill-opacity="1" fill-rule="nonzero"/></g><path fill="#24272c" d="M 281.171875 160.546875 C 291.714844 164.820312 304.15625 165.839844 317.402344 165.488281 C 351.152344 164.582031 390.003906 154.953125 415.289062 168.511719 C 418.132812 170.035156 420.8125 171.847656 423.285156 174.003906 C 424.382812 174.957031 425.277344 175.925781 426.09375 176.890625 C 434.945312 187.308594 429.632812 198.164062 447.855469 204.011719 C 460.820312 208.171875 476.917969 200.085938 488.5 196.269531 C 521.992188 185.234375 543.082031 170.183594 549.898438 135.886719 C 550.097656 134.871094 550.289062 133.863281 550.46875 132.867188 C 555.929688 102.136719 549.78125 84.078125 588.742188 81.425781 C 589.46875 81.375 590.167969 81.316406 590.914062 81.277344 C 614.269531 80.082031 637.371094 95.371094 662.191406 95.0625 C 675.019531 94.902344 685.027344 92.996094 692.679688 89.886719 C 705.707031 84.59375 711.769531 75.746094 712.535156 65.527344 C 713.152344 57.375 710.460938 48.382812 705.210938 39.664062 C 696.179688 24.703125 679.773438 10.617188 660.347656 3.203125 L 386.117188 3.203125 C 383.953125 22.738281 377.226562 42.253906 366.589844 59.140625 C 356.363281 75.367188 342.597656 89.160156 325.863281 98.160156 C 316.644531 103.113281 300.675781 104.917969 286.164062 107.667969 C 263.347656 112.003906 244.132812 118.714844 260.558594 143.800781 C 265.910156 151.984375 272.976562 157.226562 281.171875 160.546875 " fill-opacity="1" fill-rule="nonzero"/><g clip-path="url(#91bc0db601)"><path fill="#24272c" d="M 314.230469 733.734375 C 341.214844 701.582031 350.710938 684.964844 396.460938 687.726562 C 355.597656 729.261719 439.300781 725.054688 461.539062 710.082031 C 471.136719 703.625 477.175781 695.0625 481.144531 685.304688 C 492.628906 657.015625 486.527344 618.613281 498.117188 591.703125 C 508.882812 566.722656 532.90625 551.003906 559.804688 541.1875 C 567.691406 538.308594 575.8125 535.90625 583.9375 533.949219 C 590.914062 532.277344 600.085938 530.621094 609.8125 528.390625 C 625.351562 524.839844 642.285156 519.828125 653.988281 510.988281 C 659.679688 506.679688 664.113281 501.46875 666.535156 495.070312 C 668.222656 490.644531 668.96875 485.667969 668.46875 480.019531 C 646.78125 479.191406 617.328125 507.449219 597.5625 495.824219 C 563.84375 476.019531 616.203125 420.84375 630.882812 402.015625 C 656.867188 368.734375 710.859375 327.726562 719.125 282.785156 C 721.347656 270.675781 710.28125 260.417969 698.371094 263.519531 C 668.660156 271.261719 633.675781 300.367188 615.226562 316.972656 C 584.265625 344.832031 579.390625 400.699219 543.867188 421.738281 C 489.398438 453.992188 529.925781 377.703125 521.351562 348.640625 C 518.53125 339.089844 510.429688 334.625 491.917969 340.785156 C 457.09375 352.375 433.851562 397.179688 420.484375 440.617188 C 412.957031 465.097656 408.5625 489.136719 407.027344 506.550781 C 403.976562 541.085938 396.523438 547.117188 369.589844 565.398438 C 344.53125 582.410156 346.445312 598.082031 331.136719 616.539062 C 319.65625 630.394531 322.734375 634.261719 308.261719 630.144531 C 304.785156 629.160156 280.203125 619.558594 274.851562 629.71875 C 263.707031 650.886719 299.0625 653.835938 298.304688 673.34375 C 297.835938 685.226562 268.152344 701.75 258.085938 708.199219 C 243.246094 717.699219 207.550781 734.144531 212.824219 755.683594 C 214.160156 761.144531 218.085938 766.925781 225.691406 773.015625 C 254.210938 795.800781 297.785156 753.339844 314.230469 733.734375 " fill-opacity="1" fill-rule="nonzero"/></g><g clip-path="url(#0ce5674de4)"><g mask="url(#127132fdac)"><g transform="matrix(1, 0, 0, 1, 0, 0.000000000000055289)"><g clip-path="url(#054aec4f23)"><g clip-path="url(#95d42bc8d5)"><path fill="#000000" d="M 0 -3.621094 L 1027.675781 -3.621094 L 1027.675781 575.859375 L 0 575.859375 Z M 0 -3.621094 " fill-opacity="1" fill-rule="nonzero"/></g></g></g></g></g></svg>