<svg xmlns="http://www.w3.org/2000/svg" xmlns:xlink="http://www.w3.org/1999/xlink" width="500" zoomAndPan="magnify" viewBox="0 0 375 374.999991" height="500" preserveAspectRatio="xMidYMid meet" version="1.0"><defs><clipPath id="2cef424c97"><path d="M 37.5 37.5 L 337.5 37.5 L 337.5 337.5 L 37.5 337.5 Z M 37.5 37.5 " clip-rule="nonzero"/></clipPath></defs><g clip-path="url(#2cef424c97)"><path fill="#ffffff" d="M 187.519531 46.167969 C 109.578125 46.167969 46.171875 109.578125 46.171875 187.515625 C 46.171875 265.457031 109.578125 328.863281 187.519531 328.863281 C 265.457031 328.863281 328.867188 265.457031 328.867188 187.515625 C 328.867188 109.578125 265.457031 46.167969 187.519531 46.167969 Z M 187.519531 337.539062 C 104.800781 337.539062 37.5 270.238281 37.5 187.515625 C 37.5 104.796875 104.800781 37.496094 187.519531 37.496094 C 270.238281 37.496094 337.539062 104.796875 337.539062 187.515625 C 337.539062 270.238281 270.238281 337.539062 187.519531 337.539062 " fill-opacity="1" fill-rule="nonzero"/></g><path fill="#ffffff" d="M 261.386719 187.515625 L 146.484375 121.175781 L 146.484375 253.859375 L 261.386719 187.515625 L 146.484375 121.175781 L 146.484375 253.859375 L 261.386719 187.515625 " fill-opacity="1" fill-rule="nonzero"/></svg>